<svg width="206" height="33" viewBox="0 0 206 33" fill="none" xmlns="http://www.w3.org/2000/svg">
<path d="M0.776786 12.375H28.2232C28.6504 12.375 29 12.723 29 13.1484V29.9062C29 31.6143 27.6083 33 25.8929 33H3.10714C1.39174 33 0 31.6143 0 29.9062V13.1484C0 12.723 0.349554 12.375 0.776786 12.375ZM29 9.53906V7.21875C29 5.51074 27.6083 4.125 25.8929 4.125H22.7857V0.773438C22.7857 0.348047 22.4362 0 22.0089 0H19.4196C18.9924 0 18.6429 0.348047 18.6429 0.773438V4.125H10.3571V0.773438C10.3571 0.348047 10.0076 0 9.58036 0H6.99107C6.56384 0 6.21429 0.348047 6.21429 0.773438V4.125H3.10714C1.39174 4.125 0 5.51074 0 7.21875V9.53906C0 9.96445 0.349554 10.3125 0.776786 10.3125H28.2232C28.6504 10.3125 29 9.96445 29 9.53906Z" fill="#403D39"/>
<path fill-rule="evenodd" clip-rule="evenodd" d="M9.28005 17.0989C8.35225 17.0989 7.59741 17.7279 7.59741 18.5011C7.59741 19.2743 8.35225 19.9033 9.28005 19.9033C10.2079 19.9033 10.9627 19.2743 10.9627 18.5011C10.9627 17.7279 10.2079 17.0989 9.28005 17.0989M9.28 15.1868C11.4765 15.1868 13.2571 16.6707 13.2571 18.5011C13.2571 20.3315 11.4765 21.8154 9.28 21.8154C7.08349 21.8154 5.30286 20.3315 5.30286 18.5011C5.30286 16.6707 7.08348 15.1868 9.28 15.1868Z" fill="white"/>
<path fill-rule="evenodd" clip-rule="evenodd" d="M19.8857 17.0989C18.9579 17.0989 18.2031 17.7279 18.2031 18.5011C18.2031 19.2743 18.9579 19.9033 19.8857 19.9033C20.8135 19.9033 21.5683 19.2743 21.5683 18.5011C21.5683 17.7279 20.8135 17.0989 19.8857 17.0989M19.8857 15.1868C22.0822 15.1868 23.8629 16.6707 23.8629 18.5011C23.8629 20.3315 22.0822 21.8154 19.8857 21.8154C17.6892 21.8154 15.9086 20.3315 15.9086 18.5011C15.9086 16.6707 17.6892 15.1868 19.8857 15.1868Z" fill="white"/>
<path d="M42.1108 28H35.9233V10.5455H42.1619C43.9176 10.5455 45.429 10.8949 46.696 11.5938C47.9631 12.2869 48.9375 13.2841 49.6193 14.5852C50.3068 15.8864 50.6506 17.4432 50.6506 19.2557C50.6506 21.0739 50.3068 22.6364 49.6193 23.9432C48.9375 25.25 47.9574 26.2528 46.679 26.9517C45.4062 27.6506 43.8835 28 42.1108 28ZM39.6136 24.8381H41.9574C43.0483 24.8381 43.9659 24.6449 44.7102 24.2585C45.4602 23.8665 46.0227 23.2614 46.3977 22.4432C46.7784 21.6193 46.9688 20.5568 46.9688 19.2557C46.9688 17.9659 46.7784 16.9119 46.3977 16.0938C46.0227 15.2756 45.4631 14.6733 44.7188 14.2869C43.9744 13.9006 43.0568 13.7074 41.9659 13.7074H39.6136V24.8381ZM57.049 28.2472C56.2138 28.2472 55.4695 28.1023 54.8161 27.8125C54.1626 27.517 53.6456 27.0824 53.2649 26.5085C52.8899 25.929 52.7024 25.2074 52.7024 24.3438C52.7024 23.6165 52.8359 23.0057 53.103 22.5114C53.37 22.017 53.7337 21.6193 54.1939 21.3182C54.6541 21.017 55.1768 20.7898 55.7621 20.6364C56.353 20.483 56.9723 20.375 57.62 20.3125C58.3814 20.233 58.995 20.1591 59.4609 20.0909C59.9268 20.017 60.2649 19.9091 60.4751 19.767C60.6854 19.625 60.7905 19.4148 60.7905 19.1364V19.0852C60.7905 18.5455 60.62 18.1278 60.2791 17.8324C59.9439 17.5369 59.4666 17.3892 58.8473 17.3892C58.1939 17.3892 57.674 17.5341 57.2876 17.8239C56.9013 18.108 56.6456 18.4659 56.5206 18.8977L53.1626 18.625C53.3331 17.8295 53.6683 17.142 54.1683 16.5625C54.6683 15.9773 55.3132 15.5284 56.103 15.2159C56.8984 14.8977 57.8189 14.7386 58.8643 14.7386C59.5916 14.7386 60.2876 14.8239 60.9524 14.9943C61.6229 15.1648 62.2166 15.429 62.7337 15.7869C63.2564 16.1449 63.6683 16.6051 63.9695 17.1676C64.2706 17.7244 64.4212 18.392 64.4212 19.1705V28H60.978V26.1847H60.8757C60.6655 26.5938 60.3842 26.9545 60.032 27.267C59.6797 27.5739 59.2564 27.8153 58.7621 27.9915C58.2678 28.1619 57.6967 28.2472 57.049 28.2472ZM58.0888 25.7415C58.6229 25.7415 59.0945 25.6364 59.5036 25.4261C59.9126 25.2102 60.2337 24.9205 60.4666 24.5568C60.6996 24.1932 60.8161 23.7812 60.8161 23.321V21.9318C60.7024 22.0057 60.5462 22.0739 60.3473 22.1364C60.1541 22.1932 59.9354 22.2472 59.6911 22.2983C59.4467 22.3437 59.2024 22.3864 58.9581 22.4261C58.7138 22.4602 58.4922 22.4915 58.2933 22.5199C57.8672 22.5824 57.495 22.6818 57.1768 22.8182C56.8587 22.9545 56.6115 23.1392 56.4354 23.3722C56.2592 23.5994 56.1712 23.8835 56.1712 24.2244C56.1712 24.7188 56.3501 25.0966 56.7081 25.358C57.0717 25.6136 57.532 25.7415 58.0888 25.7415ZM67.2379 28V14.9091H70.8686V28H67.2379ZM69.0618 13.2216C68.522 13.2216 68.0589 13.0426 67.6726 12.6847C67.2919 12.321 67.1016 11.8864 67.1016 11.3807C67.1016 10.8807 67.2919 10.4517 67.6726 10.0938C68.0589 9.73011 68.522 9.54829 69.0618 9.54829C69.6016 9.54829 70.0618 9.73011 70.4425 10.0938C70.8288 10.4517 71.022 10.8807 71.022 11.3807C71.022 11.8864 70.8288 12.321 70.4425 12.6847C70.0618 13.0426 69.6016 13.2216 69.0618 13.2216ZM77.4077 10.5455V28H73.777V10.5455H77.4077ZM82.5575 32.9091C82.0973 32.9091 81.6655 32.8722 81.2621 32.7983C80.8643 32.7301 80.5348 32.642 80.2734 32.5341L81.0916 29.8239C81.5178 29.9545 81.9013 30.0256 82.2422 30.0369C82.5888 30.0483 82.8871 29.9688 83.1371 29.7983C83.3928 29.6278 83.6001 29.3381 83.7592 28.929L83.9723 28.375L79.2763 14.9091H83.0945L85.8047 24.5227H85.9411L88.6768 14.9091H92.5206L87.4325 29.4148C87.1882 30.1193 86.8558 30.733 86.4354 31.2557C86.0206 31.7841 85.495 32.1903 84.8587 32.4744C84.2223 32.7642 83.4553 32.9091 82.5575 32.9091Z" fill="#403D39"/>
<path d="M94.4467 28V10.5455H101.333C102.651 10.5455 103.776 10.7812 104.708 11.2528C105.646 11.7187 106.359 12.3807 106.847 13.2386C107.342 14.0909 107.589 15.0937 107.589 16.2472C107.589 17.4062 107.339 18.4034 106.839 19.2386C106.339 20.0682 105.614 20.7045 104.665 21.1477C103.722 21.5909 102.58 21.8125 101.239 21.8125H96.6286V18.8466H100.643C101.347 18.8466 101.933 18.75 102.398 18.5568C102.864 18.3636 103.211 18.0739 103.438 17.6875C103.671 17.3011 103.788 16.821 103.788 16.2472C103.788 15.6676 103.671 15.179 103.438 14.7812C103.211 14.3835 102.862 14.0824 102.39 13.8778C101.924 13.6676 101.336 13.5625 100.626 13.5625H98.1371V28H94.4467ZM103.873 20.0568L108.211 28H104.137L99.8928 20.0568H103.873ZM115.884 28.2557C114.537 28.2557 113.378 27.983 112.406 27.4375C111.44 26.8864 110.696 26.108 110.173 25.1023C109.651 24.0909 109.389 22.8949 109.389 21.5142C109.389 20.1676 109.651 18.9858 110.173 17.9688C110.696 16.9517 111.432 16.1591 112.381 15.5909C113.335 15.0227 114.455 14.7386 115.739 14.7386C116.602 14.7386 117.406 14.8778 118.151 15.1562C118.901 15.429 119.554 15.8409 120.111 16.392C120.673 16.9432 121.111 17.6364 121.423 18.4716C121.736 19.3011 121.892 20.2727 121.892 21.3864V22.3835H110.838V20.1335H118.474C118.474 19.6108 118.361 19.1477 118.134 18.7443C117.906 18.3409 117.591 18.0256 117.188 17.7983C116.79 17.5653 116.327 17.4489 115.798 17.4489C115.247 17.4489 114.759 17.5767 114.332 17.8324C113.912 18.0824 113.582 18.4205 113.344 18.8466C113.105 19.267 112.983 19.7358 112.977 20.2528V22.392C112.977 23.0398 113.097 23.5994 113.335 24.071C113.58 24.5426 113.923 24.9062 114.366 25.1619C114.81 25.4176 115.335 25.5455 115.943 25.5455C116.347 25.5455 116.716 25.4886 117.051 25.375C117.386 25.2614 117.673 25.0909 117.912 24.8636C118.151 24.6364 118.332 24.358 118.457 24.0284L121.815 24.25C121.645 25.0568 121.295 25.7614 120.767 26.3636C120.244 26.9602 119.568 27.4261 118.739 27.7614C117.915 28.0909 116.963 28.2557 115.884 28.2557ZM124.261 28V14.9091H127.722V17.2188H127.875C128.148 16.4517 128.602 15.8466 129.239 15.4034C129.875 14.9602 130.636 14.7386 131.523 14.7386C132.42 14.7386 133.185 14.9631 133.815 15.4119C134.446 15.8551 134.866 16.4574 135.077 17.2188H135.213C135.48 16.4688 135.963 15.8693 136.662 15.4205C137.366 14.9659 138.199 14.7386 139.159 14.7386C140.381 14.7386 141.372 15.1278 142.134 15.9062C142.901 16.679 143.284 17.7756 143.284 19.196V28H139.662V19.9119C139.662 19.1847 139.469 18.6392 139.082 18.2756C138.696 17.9119 138.213 17.7301 137.634 17.7301C136.974 17.7301 136.46 17.9403 136.091 18.3608C135.722 18.7756 135.537 19.3239 135.537 20.0057V28H132.017V19.8352C132.017 19.1932 131.832 18.6818 131.463 18.3011C131.099 17.9205 130.619 17.7301 130.023 17.7301C129.619 17.7301 129.256 17.8324 128.932 18.0369C128.614 18.2358 128.361 18.517 128.173 18.8807C127.986 19.2386 127.892 19.6591 127.892 20.142V28H124.261ZM146.152 28V14.9091H149.783V28H146.152ZM147.976 13.2216C147.436 13.2216 146.973 13.0426 146.587 12.6847C146.206 12.321 146.016 11.8864 146.016 11.3807C146.016 10.8807 146.206 10.4517 146.587 10.0938C146.973 9.73011 147.436 9.54829 147.976 9.54829C148.516 9.54829 148.976 9.73011 149.357 10.0938C149.743 10.4517 149.936 10.8807 149.936 11.3807C149.936 11.8864 149.743 12.321 149.357 12.6847C148.976 13.0426 148.516 13.2216 147.976 13.2216ZM156.322 20.4318V28H152.691V14.9091H156.151V17.2188H156.305C156.594 16.4574 157.08 15.8551 157.762 15.4119C158.444 14.9631 159.271 14.7386 160.242 14.7386C161.151 14.7386 161.944 14.9375 162.62 15.3352C163.296 15.733 163.822 16.3011 164.197 17.0398C164.572 17.7727 164.759 18.6477 164.759 19.6648V28H161.129V20.3125C161.134 19.5114 160.93 18.8864 160.515 18.4375C160.1 17.983 159.529 17.7557 158.802 17.7557C158.313 17.7557 157.881 17.8608 157.506 18.071C157.137 18.2812 156.847 18.5881 156.637 18.9915C156.433 19.3892 156.327 19.8693 156.322 20.4318ZM172.445 28.2131C171.45 28.2131 170.55 27.9574 169.743 27.446C168.942 26.929 168.305 26.1705 167.834 25.1705C167.368 24.1648 167.135 22.9318 167.135 21.4716C167.135 19.9716 167.376 18.7244 167.859 17.7301C168.342 16.7301 168.984 15.983 169.786 15.4886C170.592 14.9886 171.476 14.7386 172.436 14.7386C173.169 14.7386 173.78 14.8636 174.268 15.1136C174.763 15.358 175.161 15.6648 175.462 16.0341C175.768 16.3977 176.001 16.7557 176.161 17.108H176.271V10.5455H179.893V28H176.314V25.9034H176.161C175.99 26.267 175.749 26.6278 175.436 26.9858C175.129 27.3381 174.729 27.6307 174.234 27.8636C173.746 28.0966 173.149 28.2131 172.445 28.2131ZM173.595 25.3239C174.18 25.3239 174.675 25.1648 175.078 24.8466C175.487 24.5227 175.8 24.071 176.016 23.4915C176.237 22.9119 176.348 22.233 176.348 21.4545C176.348 20.6761 176.24 20 176.024 19.4261C175.808 18.8523 175.496 18.4091 175.087 18.0966C174.678 17.7841 174.18 17.6278 173.595 17.6278C172.999 17.6278 172.496 17.7898 172.087 18.1136C171.678 18.4375 171.368 18.8864 171.158 19.4602C170.947 20.0341 170.842 20.6989 170.842 21.4545C170.842 22.2159 170.947 22.8892 171.158 23.4744C171.374 24.054 171.683 24.5085 172.087 24.8381C172.496 25.1619 172.999 25.3239 173.595 25.3239ZM188.844 28.2557C187.498 28.2557 186.339 27.983 185.367 27.4375C184.401 26.8864 183.657 26.108 183.134 25.1023C182.612 24.0909 182.35 22.8949 182.35 21.5142C182.35 20.1676 182.612 18.9858 183.134 17.9688C183.657 16.9517 184.393 16.1591 185.342 15.5909C186.296 15.0227 187.415 14.7386 188.7 14.7386C189.563 14.7386 190.367 14.8778 191.112 15.1562C191.862 15.429 192.515 15.8409 193.072 16.392C193.634 16.9432 194.072 17.6364 194.384 18.4716C194.697 19.3011 194.853 20.2727 194.853 21.3864V22.3835H183.799V20.1335H191.435C191.435 19.6108 191.322 19.1477 191.094 18.7443C190.867 18.3409 190.552 18.0256 190.148 17.7983C189.751 17.5653 189.288 17.4489 188.759 17.4489C188.208 17.4489 187.719 17.5767 187.293 17.8324C186.873 18.0824 186.543 18.4205 186.305 18.8466C186.066 19.267 185.944 19.7358 185.938 20.2528V22.392C185.938 23.0398 186.058 23.5994 186.296 24.071C186.54 24.5426 186.884 24.9062 187.327 25.1619C187.771 25.4176 188.296 25.5455 188.904 25.5455C189.308 25.5455 189.677 25.4886 190.012 25.375C190.347 25.2614 190.634 25.0909 190.873 24.8636C191.112 24.6364 191.293 24.358 191.418 24.0284L194.776 24.25C194.606 25.0568 194.256 25.7614 193.728 26.3636C193.205 26.9602 192.529 27.4261 191.7 27.7614C190.876 28.0909 189.924 28.2557 188.844 28.2557ZM197.222 28V14.9091H200.742V17.1932H200.879C201.117 16.3807 201.518 15.767 202.08 15.3523C202.643 14.9318 203.29 14.7216 204.023 14.7216C204.205 14.7216 204.401 14.733 204.612 14.7557C204.822 14.7784 205.006 14.8097 205.165 14.8494V18.071C204.995 18.0199 204.759 17.9744 204.458 17.9347C204.157 17.8949 203.881 17.875 203.631 17.875C203.097 17.875 202.62 17.9915 202.2 18.2244C201.785 18.4517 201.455 18.7699 201.211 19.179C200.972 19.5881 200.853 20.0597 200.853 20.5938V28H197.222Z" fill="#EB5E28"/>
</svg>
