<svg width="166" height="45" viewBox="0 0 166 45" fill="none" xmlns="http://www.w3.org/2000/svg">
<path d="M63.8603 20.6562H60.1274C60.0592 20.1733 59.92 19.7443 59.7098 19.3693C59.4995 18.9886 59.2296 18.6648 58.9001 18.3977C58.5706 18.1307 58.1899 17.9261 57.7581 17.7841C57.3319 17.642 56.8688 17.571 56.3688 17.571C55.4654 17.571 54.6785 17.7955 54.0081 18.2443C53.3376 18.6875 52.8177 19.3352 52.4484 20.1875C52.0791 21.0341 51.8944 22.0625 51.8944 23.2727C51.8944 24.517 52.0791 25.5625 52.4484 26.4091C52.8234 27.2557 53.3461 27.8949 54.0166 28.3267C54.687 28.7585 55.4626 28.9744 56.3433 28.9744C56.8376 28.9744 57.295 28.9091 57.7154 28.7784C58.1416 28.6477 58.5194 28.4574 58.849 28.2074C59.1785 27.9517 59.4512 27.642 59.6671 27.2784C59.8887 26.9148 60.0421 26.5 60.1274 26.0341L63.8603 26.0511C63.7637 26.8523 63.5223 27.625 63.1359 28.3693C62.7552 29.108 62.241 29.7699 61.5933 30.3551C60.9512 30.9347 60.1842 31.3949 59.2921 31.7358C58.4058 32.071 57.4029 32.2386 56.2836 32.2386C54.7268 32.2386 53.3348 31.8864 52.1075 31.1818C50.8859 30.4773 49.92 29.4574 49.2098 28.1222C48.5052 26.7869 48.1529 25.1705 48.1529 23.2727C48.1529 21.3693 48.5109 19.75 49.2268 18.4148C49.9427 17.0795 50.9143 16.0625 52.1416 15.3636C53.3688 14.6591 54.7495 14.3068 56.2836 14.3068C57.295 14.3068 58.2325 14.4489 59.0961 14.733C59.9654 15.017 60.7353 15.4318 61.4058 15.9773C62.0762 16.517 62.6217 17.179 63.0421 17.9631C63.4683 18.7472 63.741 19.6449 63.8603 20.6562ZM70.1714 32.2472C69.3362 32.2472 68.5919 32.1023 67.9384 31.8125C67.285 31.517 66.768 31.0824 66.3873 30.5085C66.0123 29.929 65.8248 29.2074 65.8248 28.3438C65.8248 27.6165 65.9583 27.0057 66.2254 26.5114C66.4924 26.017 66.8561 25.6193 67.3163 25.3182C67.7765 25.017 68.2992 24.7898 68.8845 24.6364C69.4754 24.483 70.0947 24.375 70.7424 24.3125C71.5038 24.233 72.1174 24.1591 72.5833 24.0909C73.0492 24.017 73.3873 23.9091 73.5975 23.767C73.8078 23.625 73.9129 23.4148 73.9129 23.1364V23.0852C73.9129 22.5455 73.7424 22.1278 73.4015 21.8324C73.0663 21.5369 72.589 21.3892 71.9697 21.3892C71.3163 21.3892 70.7964 21.5341 70.41 21.8239C70.0237 22.108 69.768 22.4659 69.643 22.8977L66.285 22.625C66.4555 21.8295 66.7907 21.142 67.2907 20.5625C67.7907 19.9773 68.4356 19.5284 69.2254 19.2159C70.0208 18.8977 70.9413 18.7386 71.9867 18.7386C72.714 18.7386 73.41 18.8239 74.0748 18.9943C74.7453 19.1648 75.339 19.429 75.8561 19.7869C76.3788 20.1449 76.7907 20.6051 77.0919 21.1676C77.393 21.7244 77.5436 22.392 77.5436 23.1705V32H74.1004V30.1847H73.9981C73.7879 30.5938 73.5066 30.9545 73.1544 31.267C72.8021 31.5739 72.3788 31.8153 71.8845 31.9915C71.3902 32.1619 70.8191 32.2472 70.1714 32.2472ZM71.2112 29.7415C71.7453 29.7415 72.2169 29.6364 72.6259 29.4261C73.035 29.2102 73.3561 28.9205 73.589 28.5568C73.822 28.1932 73.9385 27.7812 73.9385 27.321V25.9318C73.8248 26.0057 73.6686 26.0739 73.4697 26.1364C73.2765 26.1932 73.0578 26.2472 72.8135 26.2983C72.5691 26.3437 72.3248 26.3864 72.0805 26.4261C71.8362 26.4602 71.6146 26.4915 71.4157 26.5199C70.9896 26.5824 70.6174 26.6818 70.2992 26.8182C69.9811 26.9545 69.7339 27.1392 69.5578 27.3722C69.3816 27.5994 69.2936 27.8835 69.2936 28.2244C69.2936 28.7188 69.4725 29.0966 69.8305 29.358C70.1941 29.6136 70.6544 29.7415 71.2112 29.7415ZM83.991 14.5455V32H80.3603V14.5455H83.991ZM92.8653 32.2557C91.5187 32.2557 90.3596 31.983 89.388 31.4375C88.4221 30.8864 87.6778 30.108 87.1551 29.1023C86.6323 28.0909 86.371 26.8949 86.371 25.5142C86.371 24.1676 86.6323 22.9858 87.1551 21.9688C87.6778 20.9517 88.4136 20.1591 89.3625 19.5909C90.317 19.0227 91.4363 18.7386 92.7204 18.7386C93.584 18.7386 94.388 18.8778 95.1323 19.1562C95.8823 19.429 96.5358 19.8409 97.0926 20.392C97.6551 20.9432 98.0926 21.6364 98.4051 22.4716C98.7176 23.3011 98.8738 24.2727 98.8738 25.3864V26.3835H87.8198V24.1335H95.4562C95.4562 23.6108 95.3426 23.1477 95.1153 22.7443C94.888 22.3409 94.5727 22.0256 94.1693 21.7983C93.7715 21.5653 93.3085 21.4489 92.7801 21.4489C92.2289 21.4489 91.7403 21.5767 91.3142 21.8324C90.8937 22.0824 90.5642 22.4205 90.3255 22.8466C90.0869 23.267 89.9647 23.7358 89.959 24.2528V26.392C89.959 27.0398 90.0784 27.5994 90.317 28.071C90.5613 28.5426 90.9051 28.9062 91.3483 29.1619C91.7914 29.4176 92.317 29.5455 92.925 29.5455C93.3284 29.5455 93.6977 29.4886 94.0329 29.375C94.3681 29.2614 94.6551 29.0909 94.8937 28.8636C95.1323 28.6364 95.3142 28.358 95.4392 28.0284L98.7971 28.25C98.6267 29.0568 98.2772 29.7614 97.7488 30.3636C97.2261 30.9602 96.55 31.4261 95.7204 31.7614C94.8965 32.0909 93.9448 32.2557 92.8653 32.2557ZM104.874 24.4318V32H101.243V18.9091H104.703V21.2188H104.857C105.147 20.4574 105.632 19.8551 106.314 19.4119C106.996 18.9631 107.823 18.7386 108.794 18.7386C109.703 18.7386 110.496 18.9375 111.172 19.3352C111.848 19.733 112.374 20.3011 112.749 21.0398C113.124 21.7727 113.311 22.6477 113.311 23.6648V32H109.681V24.3125C109.686 23.5114 109.482 22.8864 109.067 22.4375C108.652 21.983 108.081 21.7557 107.354 21.7557C106.865 21.7557 106.433 21.8608 106.058 22.071C105.689 22.2812 105.399 22.5881 105.189 22.9915C104.985 23.3892 104.88 23.8693 104.874 24.4318ZM120.997 32.2131C120.002 32.2131 119.102 31.9574 118.295 31.446C117.494 30.929 116.857 30.1705 116.386 29.1705C115.92 28.1648 115.687 26.9318 115.687 25.4716C115.687 23.9716 115.929 22.7244 116.411 21.7301C116.894 20.7301 117.536 19.983 118.338 19.4886C119.144 18.9886 120.028 18.7386 120.988 18.7386C121.721 18.7386 122.332 18.8636 122.821 19.1136C123.315 19.358 123.713 19.6648 124.014 20.0341C124.321 20.3977 124.554 20.7557 124.713 21.108H124.823V14.5455H128.446V32H124.866V29.9034H124.713C124.542 30.267 124.301 30.6278 123.988 30.9858C123.681 31.3381 123.281 31.6307 122.786 31.8636C122.298 32.0966 121.701 32.2131 120.997 32.2131ZM122.147 29.3239C122.732 29.3239 123.227 29.1648 123.63 28.8466C124.039 28.5227 124.352 28.071 124.568 27.4915C124.789 26.9119 124.9 26.233 124.9 25.4545C124.9 24.6761 124.792 24 124.576 23.4261C124.36 22.8523 124.048 22.4091 123.639 22.0966C123.23 21.7841 122.732 21.6278 122.147 21.6278C121.551 21.6278 121.048 21.7898 120.639 22.1136C120.23 22.4375 119.92 22.8864 119.71 23.4602C119.5 24.0341 119.394 24.6989 119.394 25.4545C119.394 26.2159 119.5 26.8892 119.71 27.4744C119.926 28.054 120.235 28.5085 120.639 28.8381C121.048 29.1619 121.551 29.3239 122.147 29.3239ZM135.164 32.2472C134.328 32.2472 133.584 32.1023 132.931 31.8125C132.277 31.517 131.76 31.0824 131.38 30.5085C131.005 29.929 130.817 29.2074 130.817 28.3438C130.817 27.6165 130.951 27.0057 131.218 26.5114C131.485 26.017 131.848 25.6193 132.308 25.3182C132.769 25.017 133.291 24.7898 133.877 24.6364C134.468 24.483 135.087 24.375 135.735 24.3125C136.496 24.233 137.11 24.1591 137.576 24.0909C138.041 24.017 138.38 23.9091 138.59 23.767C138.8 23.625 138.905 23.4148 138.905 23.1364V23.0852C138.905 22.5455 138.735 22.1278 138.394 21.8324C138.058 21.5369 137.581 21.3892 136.962 21.3892C136.308 21.3892 135.789 21.5341 135.402 21.8239C135.016 22.108 134.76 22.4659 134.635 22.8977L131.277 22.625C131.448 21.8295 131.783 21.142 132.283 20.5625C132.783 19.9773 133.428 19.5284 134.218 19.2159C135.013 18.8977 135.933 18.7386 136.979 18.7386C137.706 18.7386 138.402 18.8239 139.067 18.9943C139.737 19.1648 140.331 19.429 140.848 19.7869C141.371 20.1449 141.783 20.6051 142.084 21.1676C142.385 21.7244 142.536 22.392 142.536 23.1705V32H139.093V30.1847H138.99C138.78 30.5938 138.499 30.9545 138.147 31.267C137.794 31.5739 137.371 31.8153 136.877 31.9915C136.382 32.1619 135.811 32.2472 135.164 32.2472ZM136.203 29.7415C136.737 29.7415 137.209 29.6364 137.618 29.4261C138.027 29.2102 138.348 28.9205 138.581 28.5568C138.814 28.1932 138.931 27.7812 138.931 27.321V25.9318C138.817 26.0057 138.661 26.0739 138.462 26.1364C138.269 26.1932 138.05 26.2472 137.806 26.2983C137.561 26.3437 137.317 26.3864 137.073 26.4261C136.828 26.4602 136.607 26.4915 136.408 26.5199C135.982 26.5824 135.61 26.6818 135.291 26.8182C134.973 26.9545 134.726 27.1392 134.55 27.3722C134.374 27.5994 134.286 27.8835 134.286 28.2244C134.286 28.7188 134.465 29.0966 134.823 29.358C135.186 29.6136 135.647 29.7415 136.203 29.7415ZM145.353 32V18.9091H148.872V21.1932H149.009C149.247 20.3807 149.648 19.767 150.21 19.3523C150.773 18.9318 151.421 18.7216 152.154 18.7216C152.335 18.7216 152.531 18.733 152.742 18.7557C152.952 18.7784 153.137 18.8097 153.296 18.8494V22.071C153.125 22.0199 152.889 21.9744 152.588 21.9347C152.287 21.8949 152.012 21.875 151.762 21.875C151.228 21.875 150.75 21.9915 150.33 22.2244C149.915 22.4517 149.585 22.7699 149.341 23.179C149.103 23.5881 148.983 24.0597 148.983 24.5938V32H145.353Z" fill="#403D39"/>
<path d="M0.928571 14.8571H33.7381C34.2488 14.8571 34.6667 15.275 34.6667 15.7857V35.9048C34.6667 37.9554 33.003 39.619 30.9524 39.619H3.71429C1.66369 39.619 0 37.9554 0 35.9048V15.7857C0 15.275 0.417857 14.8571 0.928571 14.8571ZM34.6667 11.4524V8.66667C34.6667 6.61607 33.003 4.95238 30.9524 4.95238H27.2381V0.928571C27.2381 0.417857 26.8202 0 26.3095 0H23.2143C22.7036 0 22.2857 0.417857 22.2857 0.928571V4.95238H12.381V0.928571C12.381 0.417857 11.9631 0 11.4524 0H8.35714C7.84643 0 7.42857 0.417857 7.42857 0.928571V4.95238H3.71429C1.66369 4.95238 0 6.61607 0 8.66667V11.4524C0 11.9631 0.417857 12.381 0.928571 12.381H33.7381C34.2488 12.381 34.6667 11.9631 34.6667 11.4524Z" fill="#403D39"/>
<path fill-rule="evenodd" clip-rule="evenodd" d="M11.0934 21.3029C9.98429 21.3029 9.08196 22.0548 9.08196 22.9791C9.08196 23.9033 9.98429 24.6553 11.0934 24.6553C12.2025 24.6553 13.1048 23.9033 13.1048 22.9791C13.1048 22.0548 12.2025 21.3029 11.0934 21.3029M11.0933 19.0171C13.719 19.0171 15.8476 20.7909 15.8476 22.979C15.8476 25.1671 13.719 26.9409 11.0933 26.9409C8.46756 26.9409 6.33899 25.1671 6.33899 22.979C6.33899 20.7909 8.46756 19.0171 11.0933 19.0171Z" fill="white"/>
<path fill-rule="evenodd" clip-rule="evenodd" d="M23.7715 21.3029C22.6624 21.3029 21.76 22.0548 21.76 22.9791C21.76 23.9033 22.6624 24.6553 23.7715 24.6553C24.8806 24.6553 25.7829 23.9033 25.7829 22.9791C25.7829 22.0548 24.8806 21.3029 23.7715 21.3029M23.7714 19.0171C26.3971 19.0171 28.5257 20.7909 28.5257 22.979C28.5257 25.1671 26.3972 26.9409 23.7714 26.9409C21.1457 26.9409 19.0172 25.1671 19.0172 22.979C19.0172 20.7909 21.1457 19.0171 23.7714 19.0171Z" fill="white"/>
</svg>
